# xmcd CD database file
#
# Track frame offsets:
#	150
#	33196
#	59014
#	81542
#	95648
#	121859
#	150070
#	187014
#	228374
#
# Disc length: 3419 seconds
#
# Revision: 0
# Processed by: cddbd v1.5.2PL0 Copyright (c) Steve Scherf et al.
# Submitted via: CDex 1.70beta2
#
DISCID=6c0d5909
DTITLE=Mingus, Charles - Mingus Ah Um
DYEAR=1959
DGENRE=Jazz
TTITLE0=Better Git In Your Soul
TTITLE1=Goodbye Pork Pie Hat
TTITLE2=Boogie Stop Shuffle
TTITLE3=Self Portait In Three Colours
TTITLE4=Open Letter To Duke
TTITLE5=Bird Calls
TTITLE6=Fables Of Faubus
TTITLE7=Pussy Cat Dues
TTITLE8=Jelly Roll
EXTD=YEAR: 1959
EXTT0=
EXTT1=
EXTT2=
EXTT3=
EXTT4=
EXTT5=
EXTT6=
EXTT7=
EXTT8=
PLAYORDER=
